<svg xmlns="http://www.w3.org/2000/svg" width="21.152" height="18.803" viewBox="0 0 21.152 18.803">
  <path id="export" d="M14.1,4.477a.879.879,0,0,0-.257-.621l-3.6-3.6A.881.881,0,0,0,9.626,0H9.4V4.7h4.7Zm6.868,6.835-3.515-3.54a.589.589,0,0,0-1.006.415v2.391H14.1v2.35h2.35v2.394a.589.589,0,0,0,1.006.415l3.515-3.544A.625.625,0,0,0,20.97,11.311ZM7.051,12.34V11.164a.589.589,0,0,1,.588-.588H14.1v-4.7H9.108a.884.884,0,0,1-.881-.881V0H.881A.879.879,0,0,0,0,.881v17.04a.879.879,0,0,0,.881.881h12.34a.879.879,0,0,0,.881-.881V12.927H7.639A.589.589,0,0,1,7.051,12.34Z" fill="#fff"/>
</svg>
