<svg xmlns="http://www.w3.org/2000/svg" xmlns:xlink="http://www.w3.org/1999/xlink" width="222" height="222" viewBox="0 0 222 222">
  <defs>
    <clipPath id="clip-path">
      <rect id="Rectangle_8678" data-name="Rectangle 8678" width="222" height="222" transform="translate(848 374)" fill="none" stroke="#707070" stroke-width="1"/>
    </clipPath>
    <linearGradient id="linear-gradient" x1="0.149" y1="0.851" x2="0.854" y2="0.146" gradientUnits="objectBoundingBox">
      <stop offset="0" stop-color="#ffe46e"/>
      <stop offset="0.058" stop-color="#fff082"/>
      <stop offset="0.137" stop-color="#ffff9a"/>
      <stop offset="0.15" stop-color="#f6f18c"/>
      <stop offset="0.195" stop-color="#dac662"/>
      <stop offset="0.236" stop-color="#c7a744"/>
      <stop offset="0.271" stop-color="#bb9432"/>
      <stop offset="0.295" stop-color="#b78e2c"/>
      <stop offset="0.354" stop-color="#c8a33f"/>
      <stop offset="0.466" stop-color="#f2d66c"/>
      <stop offset="0.468" stop-color="#f1d56b"/>
      <stop offset="0.641" stop-color="#c09a37"/>
      <stop offset="0.724" stop-color="#ae8323"/>
      <stop offset="0.74" stop-color="#a1761f"/>
      <stop offset="0.77" stop-color="#815614"/>
      <stop offset="0.808" stop-color="#4c2204"/>
      <stop offset="0.817" stop-color="#401600"/>
      <stop offset="0.831" stop-color="#5f3409"/>
      <stop offset="0.849" stop-color="#815614"/>
      <stop offset="0.866" stop-color="#996f1c"/>
      <stop offset="0.882" stop-color="#a87d21"/>
      <stop offset="0.895" stop-color="#ae8323"/>
      <stop offset="0.918" stop-color="#bb922f"/>
      <stop offset="0.962" stop-color="#ddbb4e"/>
      <stop offset="1" stop-color="#ffe46e"/>
    </linearGradient>
    <linearGradient id="linear-gradient-2" x1="0.5" y1="0.009" x2="0.5" y2="0.984" xlink:href="#linear-gradient"/>
    <linearGradient id="linear-gradient-3" x1="0.151" y1="0.849" x2="0.84" y2="0.16" xlink:href="#linear-gradient"/>
    <linearGradient id="linear-gradient-4" x1="0.5" y1="1" x2="0.5" gradientUnits="objectBoundingBox">
      <stop offset="0" stop-color="#ffe46e"/>
      <stop offset="0.038" stop-color="#ddbb4e"/>
      <stop offset="0.082" stop-color="#bb922f"/>
      <stop offset="0.105" stop-color="#ae8323"/>
      <stop offset="0.118" stop-color="#a87d21"/>
      <stop offset="0.134" stop-color="#996f1c"/>
      <stop offset="0.151" stop-color="#815614"/>
      <stop offset="0.169" stop-color="#5f3409"/>
      <stop offset="0.183" stop-color="#401600"/>
      <stop offset="0.192" stop-color="#4c2204"/>
      <stop offset="0.23" stop-color="#815614"/>
      <stop offset="0.26" stop-color="#a1761f"/>
      <stop offset="0.276" stop-color="#ae8323"/>
      <stop offset="0.359" stop-color="#c09a37"/>
      <stop offset="0.532" stop-color="#f1d56b"/>
      <stop offset="0.534" stop-color="#f2d66c"/>
      <stop offset="0.646" stop-color="#c8a33f"/>
      <stop offset="0.705" stop-color="#b78e2c"/>
      <stop offset="0.729" stop-color="#bb9432"/>
      <stop offset="0.764" stop-color="#c7a744"/>
      <stop offset="0.805" stop-color="#dac662"/>
      <stop offset="0.85" stop-color="#f6f18c"/>
      <stop offset="0.863" stop-color="#ffff9a"/>
      <stop offset="0.942" stop-color="#fff082"/>
      <stop offset="1" stop-color="#ffe46e"/>
    </linearGradient>
    <linearGradient id="linear-gradient-5" x1="0.841" y1="0.237" x2="0.105" y2="0.667" gradientUnits="objectBoundingBox">
      <stop offset="0" stop-color="#a77911"/>
      <stop offset="1" stop-color="#fffc8e"/>
    </linearGradient>
  </defs>
  <g id="Mask_Group_184" data-name="Mask Group 184" transform="translate(-848 -374)" clip-path="url(#clip-path)">
    <g id="Group_27703" data-name="Group 27703" transform="translate(14210 5745.494)">
      <g id="Group_27699" data-name="Group 27699" transform="translate(-13404 -5414.494)">
        <circle id="Ellipse_4143" data-name="Ellipse 4143" cx="108.544" cy="108.544" r="108.544" transform="translate(0 153.505) rotate(-45)" fill="url(#linear-gradient)"/>
        <circle id="Ellipse_4144" data-name="Ellipse 4144" cx="106.56" cy="106.56" r="106.56" transform="translate(46.945 46.945)" fill="url(#linear-gradient-2)"/>
        <circle id="Ellipse_4145" data-name="Ellipse 4145" cx="91.14" cy="91.14" r="91.14" transform="translate(62.364 62.364)" fill="url(#linear-gradient-3)"/>
        <circle id="Ellipse_4146" data-name="Ellipse 4146" cx="88.698" cy="88.698" r="88.698" transform="translate(28.067 153.505) rotate(-45)" fill="#03174b"/>
        <path id="Path_32867" data-name="Path 32867" d="M427.384,46.807a82.757,82.757,0,1,1-82.757,82.757,82.756,82.756,0,0,1,82.757-82.757m0-1.148a83.905,83.905,0,1,0,83.905,83.905,84,84,0,0,0-83.905-83.905Z" transform="translate(-273.879 23.94)" fill="url(#linear-gradient-4)"/>
      </g>
      <g id="Group_27702" data-name="Group 27702" transform="translate(-13326.646 -5336.54)">
        <g id="Group_27700" data-name="Group 27700" transform="translate(0 0)">
          <path id="Path_32868" data-name="Path 32868" d="M-1225.158,284.477l1.131,3.789-7.821,2.335-9.757,7.894-1.22-4.086,5.979-4.556-7.506-.559-1.115-3.735,12.489,1.253Z" transform="translate(1246.885 -194.261)" fill="url(#linear-gradient-5)"/>
          <path id="Path_32869" data-name="Path 32869" d="M-1233.767,257.964l-8.912.482a5.572,5.572,0,0,1-4.286-1.324,6.134,6.134,0,0,1-1.734-4.347,6.134,6.134,0,0,1,1.255-4.509,5.572,5.572,0,0,1,4.118-1.778l8.912-.482a5.573,5.573,0,0,1,4.286,1.324,6.135,6.135,0,0,1,1.734,4.347,6.131,6.131,0,0,1-1.255,4.509A5.57,5.57,0,0,1-1233.767,257.964Zm-.292-8.017-9.194.5q-2.115.115-2,2.145a1.835,1.835,0,0,0,2.224,1.916l9.194-.5q2.115-.115,2.005-2.145A1.836,1.836,0,0,0-1234.059,249.947Z" transform="translate(1248.714 -172.577)" fill="url(#linear-gradient-5)"/>
          <path id="Path_32870" data-name="Path 32870" d="M-1233.541,219.377l-14.078-2.772.764-3.88,14.3,2.815a1.785,1.785,0,0,0,2.383-1.574,1.785,1.785,0,0,0-1.608-2.361l-14.3-2.815.736-3.741,14.078,2.772a5.622,5.622,0,0,1,3.848,2.312,6.027,6.027,0,0,1,.609,4.582,5.975,5.975,0,0,1-2.3,3.995A5.65,5.65,0,0,1-1233.541,219.377Z" transform="translate(1248.097 -149.507)" fill="url(#linear-gradient-5)"/>
          <path id="Path_32871" data-name="Path 32871" d="M-1216.534,177.8l-1.678,3.581-14.783-6.926-1.749,3.734-3.12-1.462,5.177-11.049,3.12,1.462-1.75,3.734Z" transform="translate(1242.6 -127.321)" fill="url(#linear-gradient-5)"/>
          <path id="Path_32872" data-name="Path 32872" d="M-1200.047,150.084l-2.5,3.06-15.3-12.522,2.5-3.06,6.208,5.08,2.683-3.278-6.207-5.08,2.5-3.06,15.3,12.521-2.5,3.06-6.426-5.259-2.684,3.278Z" transform="translate(1231.324 -107.909)" fill="url(#linear-gradient-5)"/>
          <path id="Path_32873" data-name="Path 32873" d="M-1158.054,118.605a6,6,0,0,1-4.432.992,5.238,5.238,0,0,1-3.351-2.629l-.453-.75,3.192-1.926.452.75a2.149,2.149,0,0,0,1.243,1.048,1.982,1.982,0,0,0,1.578-.309,2.051,2.051,0,0,0,1-1.245,2.053,2.053,0,0,0-.312-1.609,2.244,2.244,0,0,0-1.451-1.2,14.55,14.55,0,0,0-3.192.014,8.627,8.627,0,0,1-4.278-.42,6.192,6.192,0,0,1-2.622-2.541,5.164,5.164,0,0,1-.718-4.168,6.027,6.027,0,0,1,2.936-3.471,5.8,5.8,0,0,1,4.371-.956,5.365,5.365,0,0,1,3.33,2.675l.292.484-3.192,1.926-.277-.459q-1.109-1.837-2.778-.831a1.853,1.853,0,0,0-.931,1.189,2.05,2.05,0,0,0,.323,1.52,2.087,2.087,0,0,0,1.417,1.091,14.293,14.293,0,0,0,3.187-.076,8,8,0,0,1,4.268.459,6.662,6.662,0,0,1,2.656,2.653,5.261,5.261,0,0,1,.745,4.268A6.171,6.171,0,0,1-1158.054,118.605Z" transform="translate(1205.248 -90.35)" fill="url(#linear-gradient-5)"/>
          <path id="Path_32874" data-name="Path 32874" d="M-1128.746,104.721l-3.773,1.182-5.908-18.867,5.552-1.739a6.322,6.322,0,0,1,4.632-.045,5.358,5.358,0,0,1,2.6,3.491l.354,1.132a5.4,5.4,0,0,1-.138,4.379,6.324,6.324,0,0,1-3.83,2.605l-1.779.557Zm-4.879-15.579,1.561,4.987,1.779-.557a1.94,1.94,0,0,0,1.258-.9,2.221,2.221,0,0,0-.033-1.618l-.354-1.132a2.164,2.164,0,0,0-.892-1.334,1.975,1.975,0,0,0-1.541-.006Z" transform="translate(1186.572 -81.772)" fill="url(#linear-gradient-5)"/>
          <path id="Path_32875" data-name="Path 32875" d="M-1097.069,92.781l-.512-8.91a5.574,5.574,0,0,1,1.31-4.291,6.134,6.134,0,0,1,4.342-1.748,6.135,6.135,0,0,1,4.513,1.24,5.574,5.574,0,0,1,1.792,4.113l.512,8.91a5.572,5.572,0,0,1-1.31,4.29,6.133,6.133,0,0,1-4.341,1.749,6.132,6.132,0,0,1-4.513-1.24A5.568,5.568,0,0,1-1097.069,92.781Zm8.016-.319-.528-9.192q-.121-2.114-2.152-2a1.836,1.836,0,0,0-1.908,2.231l.528,9.193q.122,2.114,2.152,2A1.836,1.836,0,0,0-1089.053,92.462Z" transform="translate(1163.564 -77.814)" fill="url(#linear-gradient-5)"/>
          <path id="Path_32876" data-name="Path 32876" d="M-1059,99.036l-3.882-.752,3.759-19.41,5.74,1.111a6.672,6.672,0,0,1,4.092,2.044,4.723,4.723,0,0,1,.692,4l-.145.749a3.9,3.9,0,0,1-3.3,3.5l-.016.083a3.043,3.043,0,0,1,1.654,1.859,6.947,6.947,0,0,1-.01,3.321l-.44,2.274a6.492,6.492,0,0,0-.077,2.776l-3.965-.768a7.813,7.813,0,0,1,.194-2.782l.488-2.523a2.863,2.863,0,0,0-.162-2.06,2.611,2.611,0,0,0-1.789-.936l-1.331-.258Zm3.1-16.027-.944,4.88,1.414.274a2.56,2.56,0,0,0,1.846-.175,2.194,2.194,0,0,0,.874-1.543l.145-.749a1.736,1.736,0,0,0-1.5-2.334Z" transform="translate(1144.007 -78.411)" fill="url(#linear-gradient-5)"/>
          <path id="Path_32877" data-name="Path 32877" d="M-1021.118,109.683l-3.589-1.661,6.856-14.816-3.742-1.732,1.447-3.127,11.073,5.124-1.447,3.127-3.742-1.732Z" transform="translate(1122.495 -83.75)" fill="url(#linear-gradient-5)"/>
          <path id="Path_32878" data-name="Path 32878" d="M-998.836,128.9a6,6,0,0,1-2.491-3.8,5.239,5.239,0,0,1,1.278-4.063l.542-.688,2.928,2.308-.542.688a2.148,2.148,0,0,0-.542,1.532,1.982,1.982,0,0,0,.846,1.368,2.051,2.051,0,0,0,1.516.494,2.05,2.05,0,0,0,1.4-.86,2.243,2.243,0,0,0,.613-1.782,14.531,14.531,0,0,0-1.138-2.982,8.62,8.62,0,0,1-1.116-4.151,6.188,6.188,0,0,1,1.453-3.35,5.161,5.161,0,0,1,3.647-2.142A6.023,6.023,0,0,1-986.161,113a5.8,5.8,0,0,1,2.436,3.753,5.361,5.361,0,0,1-1.329,4.059l-.35.444-2.928-2.308.332-.422q1.328-1.685-.2-2.892a1.853,1.853,0,0,0-1.441-.453,2.05,2.05,0,0,0-1.308.839,2.086,2.086,0,0,0-.521,1.711,14.269,14.269,0,0,0,1.195,2.955,7.991,7.991,0,0,1,1.076,4.156,6.656,6.656,0,0,1-1.545,3.421,5.267,5.267,0,0,1-3.731,2.2A6.176,6.176,0,0,1-998.836,128.9Z" transform="translate(1109.347 -96.772)" fill="url(#linear-gradient-5)"/>
          <path id="Path_32879" data-name="Path 32879" d="M-970.834,161.044l-2.325-3.2,15.991-11.626,2.325,3.2Z" transform="translate(1093.449 -116.358)" fill="url(#linear-gradient-5)"/>
          <path id="Path_32880" data-name="Path 32880" d="M-962.189,177.931l-1.478-3.206,17.956-8.275,2.045,4.437-8.733,8.379,10.388-4.788,1.478,3.206-17.956,8.275-1.667-3.617,10.741-10.3Z" transform="translate(1088.1 -127.757)" fill="url(#linear-gradient-5)"/>
          <path id="Path_32881" data-name="Path 32881" d="M-949.109,218.514l-1.023-5.928,19.483-3.362,1.023,5.929a6.166,6.166,0,0,1-.659,4.57,5.46,5.46,0,0,1-3.848,2.2l-8.461,1.46a5.457,5.457,0,0,1-4.362-.781A6.163,6.163,0,0,1-949.109,218.514Zm15.736-4.808-12.691,2.19.341,1.976a2.05,2.05,0,0,0,.746,1.419,2.234,2.234,0,0,0,1.654.2l8.572-1.479a2.235,2.235,0,0,0,1.491-.744,2.054,2.054,0,0,0,.227-1.587Z" transform="translate(1080.474 -151.859)" fill="url(#linear-gradient-5)"/>
          <path id="Path_32882" data-name="Path 32882" d="M-947.179,260l.725-10.736,19.725,1.332-.725,10.737-3.438-.232.459-6.791L-935,254l-.365,5.411-3.438-.233.365-5.41-4.847-.327-.459,6.791Z" transform="translate(1078.81 -174.421)" fill="url(#linear-gradient-5)"/>
          <path id="Path_32883" data-name="Path 32883" d="M-953.906,280.1l1.166-3.63,8.254,7.458,10.508-1.223-1.3,4.061-6.693.52,5.112,4.4-1.166,3.631-7.831-7.114-11.053,1.255,1.3-4.034,7.273-.571Z" transform="translate(1084.294 -189.747)" fill="url(#linear-gradient-5)"/>
        </g>
        <g id="Group_27701" data-name="Group 27701" transform="translate(28.084 45.256)">
          <path id="Path_32884" data-name="Path 32884" d="M243.1,141.469c-1.591-3.3-6.142-3.219-9.209-3.73-2.286-.381-4.191,3.048-4.191,3.048s-5.334-4.953-7.238-6.857,4.953-3.048,4.953-3.048-3.429-.381-6.1-.381-3.048.381-4.953,5.715-6.477,10.667-6.477,10.667l-1.524,1.9s-.381,3.048.471,2.6,5.243-4.882,9.434-6.025,5.334,5.715,5.334,5.715l-9.905,9.143c2.286-.381,10.286-6.477,10.286-6.477V160.6c1.9-.762,2.286-9.143,2.286-9.143.013-.3.918-.981,1.115-1.168a9.741,9.741,0,0,1,2.258-1.7,2.539,2.539,0,0,1,1.475-.284c1.976.291,3.152,2.907,3.152,4.671,0,2.667-2.667,7.238-2.667,7.238,1.9-.762,4.191-5.715,4.191-5.715l.762,1.9s.016-.019.017-.021c2.59-3.236,5.257-6.941,6.565-10.906A5.421,5.421,0,0,0,243.1,141.469Zm-17.21,6.937s-4.572-7.238-4.953-8-.381-2.667,1.524-1.9,7.238,3.429,7.238,3.429Zm10.286,4.953c.038-.05-.01-.287-.014-.344-.019-.311-.054-.62-.1-.927a7.734,7.734,0,0,0-3.247-5.562,1.355,1.355,0,0,1-.4-.307.769.769,0,0,1-.04-.858c.014-.023,1.5.493,1.643.533.547.153,1.1.284,1.656.4a15.712,15.712,0,0,0,5.837.213Zm5.715-7.619s-8.381-.381-7.619-3.429c.588-2.353,3.567-2.291,5.4-1.725a5.631,5.631,0,0,1,1.225.534,3.307,3.307,0,0,1,1.767,2.933A2.448,2.448,0,0,1,241.888,145.739Z" transform="translate(-152.853 -109.166)" fill="url(#linear-gradient-5)"/>
          <path id="Path_32885" data-name="Path 32885" d="M192.7,121.154a42.555,42.555,0,0,0-2.286-16.382,9.45,9.45,0,0,1,.772-8.089c.856-1.341,2.081-2.346,2.905-3.706a5.606,5.606,0,0,0,.895-4.587c-1.143-3.429-5.334-4.191-5.334-4.191,3.048,1.524,4.191,5.334,3.81,6.477s-1.524,3.048-4.953,2.286-4.953-6.477-3.81-10.667-.762-3.81-.762-3.81c.817,1.634-.582,3.854-1.017,5.42a16.13,16.13,0,0,0-.38,6.655,20.727,20.727,0,0,0,1.323,4.768,22.468,22.468,0,0,1,1.7,4.779,11.215,11.215,0,0,1-.275,4.859c-.622,2.183-1.492,4.21-1.908,6.469a36.812,36.812,0,0,0-.589,6.671c0,3.048,1.524,10.286,1.524,10.286l.762-5.715a18.7,18.7,0,0,0,6.1-2.667l.381,1.524c-1.143.762-.381,2.667,0,3.048a15.68,15.68,0,0,1,1.143,3.048v-1.9s1.9,2.286,2.286-.762A3.374,3.374,0,0,0,192.7,121.154Zm-7.619.762s0-12.572,2.286-12.191,3.429,7.619,3.429,8.381S185.079,121.916,185.079,121.916Z" transform="translate(-136.808 -76.961)" fill="url(#linear-gradient-5)"/>
          <path id="Path_32886" data-name="Path 32886" d="M107.893,113.046c.384-1.608.8-3.362.208-4.97a3.878,3.878,0,0,0-2.932-2.679c-2.578-.293-2.54,3.452-1.759,4.99.988,1.947,3.047,2.994,3.841,5.079.663,1.744.31,3.65-1.518,4.463-3.429,1.524-6.1-2.286-7.238-3.81-.051-.069-.1-.139-.148-.21a42.39,42.39,0,0,1-3.141-6.262c-1.075-2.364-1.914-4.9-3.429-7.036a9.7,9.7,0,0,0-1.446-1.646c-.125-.11-.531-.317-.6-.466q.273.6.544,1.2c1,2.205,2.1,4.395,2.988,6.647a18.191,18.191,0,0,1,.77,9.46c-.5,3.06-2.359,5.507-4.3,7.838,0,0-1.143-3.048-2.286-6.477s-8-1.143-8-1.143,4.191.762,3.81,2.286-3.048,3.429-6.477,5.334a10.989,10.989,0,0,1-5.248,1.293c-.681.005-1.341-.04-1.993-.056a6.767,6.767,0,0,0-5.494,2.28,4.576,4.576,0,0,0-1.232,2.572c-.2,2.093,1.574,3.358,3.5,3.432a6.446,6.446,0,0,0,3.562-1.031,10.21,10.21,0,0,0,2.662-2.271,24.43,24.43,0,0,1,2.105-2.657,25.739,25.739,0,0,1,4.8-3.563c3.81-2.286,5.334-1.143,5.334-.381,0,.706-1.089,1.7-1.515,2.218-.614.743-1.255,1.464-1.827,2.241-1.746,2.368-1.976,4.9-1.591,7.741a27.291,27.291,0,0,0,1.123,4.945,10.279,10.279,0,0,1,0-4.074,15.722,15.722,0,0,1,.945-3.741c.728-1.856,2.026-4.212,4.219-4.523,1.787-.253,2.643,1.255,2.96,2.785a23.444,23.444,0,0,0,1.454,5.354,19.867,19.867,0,0,0,1.47,2.675c-.762-8,0-7.238,0-7.238,3.048,2.667,9.143,4.953,9.905,5.334a25.975,25.975,0,0,1,2.667,1.9l-6.477-12.191a11.185,11.185,0,0,1-1.467-5.617,2.751,2.751,0,0,1,.578-1.566,2.485,2.485,0,0,1,1.455-.811c1.214-.225,2.291.347,3.415.693a6.126,6.126,0,0,0,3.639.062c1.552-.466,2.872-1.437,2.908-3.172C108.678,116.487,107.463,114.85,107.893,113.046ZM69.051,134c-2.249.978-4.639.469-5.338-1.138s.558-3.7,2.807-4.681,4.639-.469,5.338,1.138S71.3,133.021,69.051,134Zm4.109-4.356a3.99,3.99,0,0,0-1.143-2.286c1.143.762,3.048,0,3.048,0C73.922,127.739,73.16,129.644,73.16,129.644Zm28.382,8.191s-6.857-2.286-9.143-7.238c0,0-1.524-3.048,1.143-3.429S101.543,137.835,101.543,137.835Z" transform="translate(-62.796 -90.595)" fill="url(#linear-gradient-5)"/>
          <circle id="Ellipse_4147" data-name="Ellipse 4147" cx="2.095" cy="2.095" r="2.095" transform="translate(19.317 22.477)" fill="url(#linear-gradient-5)"/>
          <circle id="Ellipse_4148" data-name="Ellipse 4148" cx="2.667" cy="2.667" r="2.667" transform="translate(34.556 19.049)" fill="url(#linear-gradient-5)"/>
          <circle id="Ellipse_4149" data-name="Ellipse 4149" cx="2.667" cy="2.667" r="2.667" transform="translate(65.795 15.62)" fill="url(#linear-gradient-5)"/>
          <circle id="Ellipse_4150" data-name="Ellipse 4150" cx="1.905" cy="1.905" r="1.905" transform="translate(81.034 24.001)" fill="url(#linear-gradient-5)"/>
          <circle id="Ellipse_4151" data-name="Ellipse 4151" cx="2.667" cy="2.667" r="2.667" transform="translate(40.651 0)" fill="url(#linear-gradient-5)"/>
          <circle id="Ellipse_4152" data-name="Ellipse 4152" cx="2.667" cy="2.667" r="2.667" transform="translate(48.652 9.905)" fill="url(#linear-gradient-5)"/>
          <circle id="Ellipse_4153" data-name="Ellipse 4153" cx="1.143" cy="1.143" r="1.143" transform="translate(89.416 44.193)" fill="url(#linear-gradient-5)"/>
        </g>
        <path id="Path_32887" data-name="Path 32887" d="M-1259.017,248.723h8.913l2.724-8.418,2.476,8.418h8.913l-7.18,4.952,2.724,8.171-6.933-5.2-7.18,5.2,2.6-8.047Z" transform="translate(1323.545 -118.02)" stroke="rgba(0,0,0,0)" stroke-width="1" fill="url(#linear-gradient-5)"/>
        <path id="Path_32888" data-name="Path 32888" d="M-1259.017,245.982h6.012l1.837-5.678,1.67,5.678h6.011l-4.843,3.34,1.837,5.511-4.676-3.507-4.843,3.507,1.753-5.427Z" transform="translate(1355.248 -119.875)" stroke="rgba(0,0,0,0)" stroke-width="1" fill="url(#linear-gradient-5)"/>
        <path id="Path_32889" data-name="Path 32889" d="M-1259.017,245.982h6.012l1.837-5.678,1.67,5.678h6.011l-4.843,3.34,1.837,5.511-4.676-3.507-4.843,3.507,1.753-5.427Z" transform="translate(1299.339 -119.875)" stroke="rgba(0,0,0,0)" stroke-width="1" fill="url(#linear-gradient-5)"/>
      </g>
    </g>
  </g>
</svg>
