
<svg xmlns="http://www.w3.org/2000/svg" viewBox="0 0 1111.21 815.95"><defs><style>.cls-1{fill:#353979;}.cls-2{fill:#ffb600;}</style></defs><title>Asset 1</title><g id="Layer_2" data-name="Layer 2"><g id="Layer_1-2" data-name="Layer 1"><path class="cls-1" d="M0,670.16c30.4-49.08,64.86-92.89,96.74-138.35,32.33-46.11,65.45-91.66,99.6-139.37L112.77,388v-2.07h201.4L137.29,635.75c8.67.56,14,1.2,19.38,1.21q111.33.09,222.65,0c6.34,0,12.69-.08,19-.37,87.49-3.9,125.52-32.9,152.56-116.29,5.77-17.81,5.77-17.81,24.8-16.07q-6.13,48.71-12.27,97.32c-2.5,19.49-4.35,39.13-8.32,58.33C554,665,546.3,672.56,541.6,672.57q-265.46.87-530.92.28C9,672.86,7.2,672,0,670.16Z"/><path class="cls-2" d="M1071.86,396c-.92-1.16-.45-3.41-.74-6.25l32.5-1.9v-2.09H646.1c-.87,7.19-2.28,13.35-2.26,19.5.14,59,.65,118,.8,177,.12,44.27-13.95,61.71-58.16,70-12.43,2.34-16.42,7.19-12.84,19.63,3.6.43,7.27,1.25,10.94,1.25,94.56,0,189.12.37,283.68-.4,49.79-.41,98.71-7.3,144.55-28.54C1115.72,596.5,1142.17,485,1071.86,396Zm-184.07,236c-30.84,5.45-63.09,5.51-94.54,4.19C755.86,634.68,743.11,619,743,581.59c-.13-62,0-124,0-190.19,22.57,0,42.06-.08,61.54,0,42.85.2,85.85,2.67,128.51-.06,27.21-1.73,39.13,14.79,50.3,32.19C1037.31,507.64,989,614.18,887.79,632.05Z"/><path class="cls-1" d="M428.57,35.66c-88.35,0-174.73-4.15-260.49,1.29-70.21,4.46-100.65,38.39-115,108.34-3,14.62-7.79,22.22-25.67,15.2,4.34-37,8.28-74.62,13.25-112.09C47.1-.12,47.45,0,95.94,0Q315.78.06,535.61,0H559.9c-4.6,9.17-6.84,15.51-10.57,20.81Q461,145.92,372.57,270.94c-7.17,10.2-14.59,15-27.8,14.9-72.21-.74-144.42-.35-216.65-3.95,36.17,0,72.37.88,108.48-.61,9.1-.38,21.07-6,26.32-13.2C316.8,194.41,369.6,120,422.66,45.59,424.78,42.62,426.41,39.31,428.57,35.66Z"/><path class="cls-2" d="M742.38,276.54c0-2.76,0-5.51.09-8.27-.07-1-.11-2-.09-3.16.26-15.28.31-30.56.31-45.85,0-16.35-.11-32.71-.11-49.07h-1V158.76h0c0-14.27.08-28.54.11-42.82,0-12.35,0-24.71-.24-37.07,0-1.27,0-2.49.08-3.69,0-2.57,0-5.16-.08-7.74-.28-18.45,8.31-29.68,26.12-31.09C815.09,32.6,862.84,30.51,908,50.06c50.12,21.72,74.09,63.2,72.39,122.33.17,5.52.17,11.15-.15,17-2.46,44.77-28.52,79.42-72.88,96.2h176.51v-3.76h-70.37c3.4-5.16,3.83-6.6,4.77-7.11,80.68-44.43,83.21-196.25-24.65-243.35C952.79,13.55,910.34,3.17,866.51,2.16,773.9,0,681.21.61,588.51.16c-3.68,0-7.36,1.12-11,1.73l-2.77,5c5.24,3.58,10,8.9,15.78,10.48,42,11.47,54.15,26.68,54.18,70q.06,88.55,0,177.08c0,6.7.59,13.39.95,21.07h98A24.45,24.45,0,0,1,742.38,276.54Z"/><path class="cls-1" d="M202.2,371.2v-7.35l44.51-37.75L266,310H203.38v-7.36H277v7.26l-44.51,37.74-19.41,16.26h66.37v7.35Z"/><path class="cls-1" d="M311.5,371.2V302.57h74.41V310H319.35V332.2H380v7.35H319.35v24.3h68.52v7.35Z"/><path class="cls-1" d="M493.94,302.57h7.84V371.2h-7.84l-66.37-58.73.2,9v49.71h-7.85V302.57h7.75L494,361.3l-.1-9.61Z"/><path class="cls-1" d="M535.8,302.57h7.84V371.2H535.8Z"/><path class="cls-1" d="M577.65,371.2V302.57H632c15.09,0,25,4.61,25,17.45,0,9.32-5.49,13.14-13.44,15.2,10.59,1.67,18.34,5.69,18.34,17.06,0,11.08-7.06,18.92-24.71,18.92ZM585.5,310V332.2h42.94c12.55,0,21.17-1.18,21.17-10.88C649.61,313,643.34,310,632,310Zm0,29.6v24.3h51.66c12.35,0,17.35-4.91,17.35-12.65,0-10.1-8.82-11.67-21.27-11.67Z"/><path class="cls-1" d="M778.43,302.57,734.21,350V371.2h-7.84V350l-44.22-47.45h10L708,319.73l22.25,23.92,22.25-23.92,15.89-17.16Z"/><path class="cls-1" d="M846.26,310v61.27h-7.84V310H802.63v-7.36H882V310Z"/><path class="cls-1" d="M912.13,371.2V302.57h74.41V310H920V332.2h60.68v7.35H920v24.3h68.52v7.35Z"/><path class="cls-1" d="M135.51,782.89c0-19,14.46-33,34-33,9.45,0,18,3.15,23.73,9.46l-4.35,4.36c-5.29-5.38-11.78-7.7-19.2-7.7-15.67,0-27.45,11.5-27.45,26.89s11.78,26.89,27.45,26.89c7.42,0,13.91-2.32,19.2-7.79l4.35,4.36c-5.71,6.3-14.24,9.59-23.8,9.59C150,816,135.51,802,135.51,782.89Z"/><path class="cls-1" d="M300.37,815.35l-14.83-20.87a45.18,45.18,0,0,1-5.2.28H262.91v20.59h-6.86V750.44h24.29c16.51,0,26.52,8.34,26.52,22.25,0,10.2-5.37,17.34-14.83,20.4l15.85,22.26ZM300,772.69c0-10.38-6.86-16.32-19.84-16.32H262.91V789h17.25C293.14,789,300,782.89,300,772.69Z"/><path class="cls-1" d="M417.11,809.41v5.94h-45.9V750.44h44.51v5.93H378.08v23.09h33.56v5.84H378.08v24.11Z"/><path class="cls-1" d="M522.08,798H485.92l-7.79,17.34H471l29.67-64.91h6.77l29.66,64.91h-7.23Zm-2.5-5.57L504,757.58l-15.58,34.86Z"/><path class="cls-1" d="M605.35,756.37H582.54v-5.93H635v5.93H612.21v59h-6.86Z"/><path class="cls-1" d="M694.08,750.44H701v64.91h-6.87Z"/><path class="cls-1" d="M823.44,750.44l-28.75,64.91h-6.77l-28.74-64.91h7.42l24.85,56.38,25-56.38Z"/><path class="cls-1" d="M926.83,809.41v5.94h-45.9V750.44h44.51v5.93H887.79v23.09h33.57v5.84H887.79v24.11Z"/><path class="cls-1" d="M87.48,709.54h936.24a6.88,6.88,0,0,1,6.87,6.87h0a6.87,6.87,0,0,1-6.87,6.87H87.48a6.87,6.87,0,0,1-6.87-6.87h0A6.88,6.88,0,0,1,87.48,709.54Z"/></g></g></svg>