<svg width="117" height="33" viewBox="0 0 117 33" fill="none" xmlns="http://www.w3.org/2000/svg">
<path d="M23 15C26.3137 15 29 12.3137 29 9C29 5.68629 26.3137 3 23 3C19.6863 3 17 5.68629 17 9C17 12.3137 19.6863 15 23 15Z" fill="#17A2B8"/>
<path d="M11.793 12.1133L14.2773 14.5977C12.6758 16.1992 10.7422 17 8.47664 17C6.21094 17 4.27734 16.1992 2.67584 14.5977C1.07424 12.9961 0.273438 11.0625 0.273438 8.7969C0.273438 6.53119 1.07424 4.59766 2.67584 2.99609C4.27734 1.39453 6.21094 0.593745 8.47664 0.593745C10.7422 0.593745 12.6758 1.39453 14.2773 2.99609L11.793 5.4805C10.8789 4.56641 9.77344 4.10938 8.47664 4.10938C7.17974 4.10938 6.07424 4.56641 5.16024 5.4805C4.24614 6.3945 3.78914 7.49999 3.78914 8.7969C3.78914 10.0938 4.24614 11.1992 5.16024 12.1133C6.07424 13.0273 7.17974 13.4844 8.47664 13.4844C9.77344 13.4844 10.8789 13.0273 11.793 12.1133ZM22.6328 0.593745C24.8984 0.593745 26.832 1.39453 28.4336 2.99609C30.0352 4.59766 30.8359 6.53119 30.8359 8.7969C30.8359 11.0625 30.0352 12.9961 28.4336 14.5977C26.832 16.1992 24.8984 17 22.6328 17C20.3672 17 18.4336 16.1992 16.832 14.5977C15.2305 12.9961 14.4297 11.0625 14.4297 8.7969C14.4297 6.53119 15.2305 4.59766 16.832 2.99609C18.4336 1.39453 20.3672 0.593745 22.6328 0.593745ZM22.6328 4.10938C21.3359 4.10938 20.2305 4.56641 19.3164 5.4805C18.4023 6.3945 17.9453 7.49999 17.9453 8.7969C17.9453 10.0938 18.4023 11.1992 19.3164 12.1133C20.2305 13.0273 21.3359 13.4844 22.6328 13.4844C23.9297 13.4844 25.0352 13.0273 25.9492 12.1133C26.8633 11.1992 27.3203 10.0938 27.3203 8.7969C27.3203 7.49999 26.8633 6.3945 25.9492 5.4805C25.0352 4.56641 23.9297 4.10938 22.6328 4.10938ZM39.0391 0.593745C41.2812 0.609365 43.1953 1.41016 44.7812 2.99609C46.3828 4.59766 47.1836 6.53119 47.1836 8.7969C47.1836 11.0625 46.3828 12.9961 44.7812 14.5977C43.1953 16.1836 41.2812 16.9844 39.0391 17H33.1797V0.593745H39.0391ZM39.0391 13.4844C40.3125 13.4688 41.3984 13.0117 42.2969 12.1133C43.2109 11.1992 43.668 10.0938 43.668 8.7969C43.668 7.49999 43.2109 6.3945 42.2969 5.4805C41.3984 4.58203 40.3125 4.12499 39.0391 4.10938H36.6953V13.4844H39.0391ZM62.4766 0.593745V4.10938H53.1016V7.03909H60.1328V10.5547H53.1016V13.4844H62.4766V17H49.5859V0.593745H62.4766ZM64.8203 0.593745H68.3359V13.4844H77.7109V17H64.8203V0.593745ZM83.57 0.593745V17H80.0547V0.593745H83.57ZM89.43 7.8125V17H85.914V0.546875L97.633 9.7812V0.593745H101.148V17.0469L89.43 7.8125ZM116.383 0.593745V4.10938H107.008V7.03909H114.039V10.5547H107.008V13.4844H116.383V17H103.492V0.593745H116.383Z" fill="white"/>
<path d="M98 28H116" stroke="white" stroke-width="0.5" stroke-linecap="round"/>
<path d="M96 30C97.1046 30 98 29.1046 98 28C98 26.8954 97.1046 26 96 26C94.8954 26 94 26.8954 94 28C94 29.1046 94.8954 30 96 30Z" fill="white"/>
<path d="M19 28H1" stroke="white" stroke-width="0.5" stroke-linecap="round"/>
<path d="M21 26C19.8954 26 19 26.8954 19 28C19 29.1046 19.8954 30 21 30C22.1046 30 23 29.1046 23 28C23 26.8954 22.1046 26 21 26Z" fill="white"/>
<path d="M30.8069 23.7969V32H29.0491V23.7969H30.8069ZM33.7366 27.4062V32H31.9788V23.7734L37.8382 28.3906V23.7969H39.596V32.0234L33.7366 27.4062ZM47.2132 23.7969V25.5547H42.5257V27.0195H47.2132V28.7773H42.5257V32H40.7679V23.7969H47.2132ZM52.4866 23.7969C53.6194 23.7969 54.5862 24.1973 55.387 24.998C56.1878 25.7988 56.5882 26.7656 56.5882 27.8984C56.5882 29.0312 56.1878 29.998 55.387 30.7988C54.5862 31.5996 53.6194 32 52.4866 32C51.3538 32 50.387 31.5996 49.5862 30.7988C48.7854 29.998 48.385 29.0312 48.385 27.8984C48.385 26.7656 48.7854 25.7988 49.5862 24.998C50.387 24.1973 51.3538 23.7969 52.4866 23.7969ZM52.4866 25.5547C51.8382 25.5547 51.2854 25.7832 50.8284 26.2402C50.3714 26.6973 50.1429 27.25 50.1429 27.8984C50.1429 28.5469 50.3714 29.0996 50.8284 29.5566C51.2854 30.0137 51.8382 30.2422 52.4866 30.2422C53.135 30.2422 53.6878 30.0137 54.1448 29.5566C54.6018 29.0996 54.8304 28.5469 54.8304 27.8984C54.8304 27.25 54.6018 26.6973 54.1448 26.2402C53.6878 25.7832 53.135 25.5547 52.4866 25.5547ZM61.2288 25.5547V32H59.471V25.5547H57.1272V23.7969H63.5725V25.5547H61.2288ZM71.1897 23.7969V25.5547H66.5022V27.0195H70.0179V28.7773H66.5022V30.2422H71.1897V32H64.7444V23.7969H71.1897ZM78.1214 29.5566L79.3636 30.7988C78.5628 31.5996 77.596 32 76.4632 32C75.3304 32 74.3636 31.5996 73.5628 30.7988C72.762 29.998 72.3616 29.0312 72.3616 27.8984C72.3616 26.7656 72.762 25.7988 73.5628 24.998C74.3636 24.1973 75.3304 23.7969 76.4632 23.7969C77.596 23.7969 78.5628 24.1973 79.3636 24.998L78.1214 26.2402C77.6643 25.7832 77.1116 25.5547 76.4632 25.5547C75.8147 25.5547 75.262 25.7832 74.805 26.2402C74.3479 26.6973 74.1194 27.25 74.1194 27.8984C74.1194 28.5469 74.3479 29.0996 74.805 29.5566C75.262 30.0137 75.8147 30.2422 76.4632 30.2422C77.1116 30.2422 77.6643 30.0137 78.1214 29.5566ZM82.323 28.7773V32H80.5647V23.7969H82.323V27.0195H86.424V23.7969H88.182V32H86.424V28.7773H82.323Z" fill="white"/>
</svg>
