<svg xmlns="http://www.w3.org/2000/svg" width="14.102" height="18.803" viewBox="0 0 14.102 18.803">
  <path id="pdf" d="M6.68,9.405a3.543,3.543,0,0,1-.073-1.722C6.915,7.683,6.886,9.038,6.68,9.405Zm-.062,1.733a16.946,16.946,0,0,1-1.043,2.3,13.523,13.523,0,0,1,2.31-.8A4.757,4.757,0,0,1,6.618,11.139ZM3.162,15.722c0,.029.485-.2,1.282-1.476A5.076,5.076,0,0,0,3.162,15.722ZM9.108,5.876H14.1V17.922a.879.879,0,0,1-.881.881H.881A.879.879,0,0,1,0,17.922V.881A.879.879,0,0,1,.881,0H8.226V4.995A.884.884,0,0,0,9.108,5.876Zm-.294,6.309A3.686,3.686,0,0,1,7.246,10.21a5.279,5.279,0,0,0,.228-2.358A.92.92,0,0,0,5.718,7.6a6.106,6.106,0,0,0,.3,2.828,34.486,34.486,0,0,1-1.5,3.151s0,0-.007,0c-1,.51-2.7,1.634-2,2.5a1.141,1.141,0,0,0,.79.367c.657,0,1.311-.661,2.244-2.27a20.934,20.934,0,0,1,2.9-.852,5.566,5.566,0,0,0,2.35.716.951.951,0,0,0,.723-1.594c-.51-.5-1.994-.356-2.7-.264Zm5.031-8.329-3.6-3.6A.881.881,0,0,0,9.622,0H9.4V4.7h4.7V4.477A.879.879,0,0,0,13.845,3.856Zm-2.721,9.376c.151-.1-.092-.437-1.572-.331C10.915,13.482,11.124,13.232,11.124,13.232Z" fill="#fff"/>
</svg>
