<svg xmlns="http://www.w3.org/2000/svg" width="21.767" height="21.768" viewBox="0 0 21.767 21.768">
  <path id="Icon_awesome-phone-alt" data-name="Icon awesome-phone-alt" d="M19.965,14.522l-4.5-1.927a.963.963,0,0,0-1.124.277l-1.991,2.432A14.878,14.878,0,0,1,5.242,8.193L7.675,6.2a.961.961,0,0,0,.277-1.124L6.025.583a.97.97,0,0,0-1.1-.558L.747.988A.963.963,0,0,0,0,1.927,18.622,18.622,0,0,0,18.624,20.551a.963.963,0,0,0,.939-.747l.963-4.174a.975.975,0,0,0-.562-1.108Z" transform="translate(0.6 0.616)" fill="none" stroke="#a2a2a2" stroke-linecap="round" stroke-linejoin="round" stroke-width="1.2"/>
</svg>
